HIERARCHY
ROOT Hips
{
	OFFSET 0.000000 71.427986 0.000000
	CHANNELS 6 Xposition Yposition Zposition Xrotation Yrotation Zrotation
	JOINT Pelvis
	{
		OFFSET 0.000000 0.000000 0.000000
		CHANNELS 3 Xrotation Yrotation Zrotation
		JOINT LeftUpLeg
		{
			OFFSET 6.797100 -2.508499 -1.318700
			CHANNELS 3 Xrotation Yrotation Zrotation
			JOINT LeftLeg
			{
				OFFSET 0.069008 -29.241863 0.690200
				CHANNELS 3 Xrotation Yrotation Zrotation
				JOINT LeftFoot
				{
					OFFSET -0.069008 -29.568123 -0.266800
					CHANNELS 3 Xrotation Yrotation Zrotation
					JOINT LeftToeBase
					{
						OFFSET 3.145500 -8.631000 16.059900
						CHANNELS 3 Xrotation Yrotation Zrotation
						End Site
						{
							OFFSET 0.000000 18.501587 0.000000
						}
					}
				}
			}
			JOINT Left_ShortSleeve
			{
				OFFSET 0.265923 -10.480953 1.153800
				CHANNELS 3 Xrotation Yrotation Zrotation
				End Site
				{
					OFFSET 1.725763 19.823879 0.000000
				}
			}
		}
		JOINT RightUpLeg
		{
			OFFSET -6.797100 -2.508499 -1.318700
			CHANNELS 3 Xrotation Yrotation Zrotation
			JOINT RightLeg
			{
				OFFSET -0.082453 -29.241932 0.688000
				CHANNELS 3 Xrotation Yrotation Zrotation
				JOINT RightFoot
				{
					OFFSET 0.082453 -29.568058 -0.264600
					CHANNELS 3 Xrotation Yrotation Zrotation
					JOINT RightToeBase
					{
						OFFSET -3.115300 -8.682800 16.113400
						CHANNELS 3 Xrotation Yrotation Zrotation
						End Site
						{
							OFFSET 0.000000 18.567114 0.000000
						}
					}
				}
			}
			JOINT Right_ShortSleeve
			{
				OFFSET -0.265923 -10.480953 1.153800
				CHANNELS 3 Xrotation Yrotation Zrotation
				End Site
				{
					OFFSET -1.725766 19.823910 0.000000
				}
			}
		}
	}
	JOINT Spine
	{
		OFFSET 0.000000 13.368103 0.470500
		CHANNELS 3 Xrotation Yrotation Zrotation
		JOINT Spine1
		{
			OFFSET 0.147000 13.837402 0.538800
			CHANNELS 3 Xrotation Yrotation Zrotation
			JOINT Spine2
			{
				OFFSET 0.168000 16.242897 -1.435500
				CHANNELS 3 Xrotation Yrotation Zrotation
				JOINT Neck
				{
					OFFSET 0.217200 18.631500 -1.679100
					CHANNELS 3 Xrotation Yrotation Zrotation
					JOINT Head
					{
						OFFSET 0.000000 6.599396 1.385900
						CHANNELS 3 Xrotation Yrotation Zrotation
						JOINT Hat
						{
							OFFSET -0.532200 27.220596 -10.096100
							CHANNELS 3 Xrotation Yrotation Zrotation
							End Site
							{
								OFFSET 0.000000 22.029861 0.000000
							}
						}
						JOINT HairD
						{
							OFFSET -10.777400 17.437393 -1.325900
							CHANNELS 3 Xrotation Yrotation Zrotation
							JOINT HairD1
							{
								OFFSET -3.290299 -11.051193 1.062200
								CHANNELS 3 Xrotation Yrotation Zrotation
								End Site
								{
									OFFSET 0.000000 11.579437 0.000000
								}
							}
						}
						JOINT HairB
						{
							OFFSET -10.777400 17.437393 1.467900
							CHANNELS 3 Xrotation Yrotation Zrotation
							JOINT HairB1
							{
								OFFSET -1.561200 -12.956299 3.590200
								CHANNELS 3 Xrotation Yrotation Zrotation
								End Site
								{
									OFFSET 0.000000 13.534866 0.000000
								}
							}
						}
						JOINT HairA
						{
							OFFSET 9.713100 17.437393 1.467900
							CHANNELS 3 Xrotation Yrotation Zrotation
							JOINT HairA1
							{
								OFFSET 1.561200 -12.956299 3.590200
								CHANNELS 3 Xrotation Yrotation Zrotation
								End Site
								{
									OFFSET 0.000000 13.534866 0.000000
								}
							}
						}
						JOINT HairC
						{
							OFFSET 9.713100 17.437393 -1.325900
							CHANNELS 3 Xrotation Yrotation Zrotation
							JOINT HairC1
							{
								OFFSET 3.290300 -11.051193 1.062200
								CHANNELS 3 Xrotation Yrotation Zrotation
								End Site
								{
									OFFSET 0.000000 11.579437 0.000000
								}
							}
						}
					}
				}
				JOINT LeftShoulder
				{
					OFFSET 5.101800 15.108002 -2.763700
					CHANNELS 3 Xrotation Yrotation Zrotation
					JOINT LeftArm
					{
						OFFSET 9.825497 2.506317 -1.597400
						CHANNELS 3 Xrotation Yrotation Zrotation
						JOINT LeftForeArm
						{
							OFFSET 21.966244 0.000000 0.000000
							CHANNELS 3 Xrotation Yrotation Zrotation
							JOINT LeftHand
							{
								OFFSET 33.879036 0.000000 0.000000
								CHANNELS 3 Xrotation Yrotation Zrotation
								JOINT LeftHandThumb1
								{
									OFFSET 6.715286 -2.359680 3.363841
									CHANNELS 3 Xrotation Yrotation Zrotation
									JOINT LeftHandThumb2
									{
										OFFSET 2.507072 -1.447464 1.447461
										CHANNELS 3 Xrotation Yrotation Zrotation
										JOINT LeftHandThumb3
										{
											OFFSET 2.898338 -1.673355 1.673357
											CHANNELS 3 Xrotation Yrotation Zrotation
											End Site
											{
												OFFSET -0.295959 3.727692 -0.131651
											}
										}
									}
								}
								JOINT LeftHandIndex1
								{
									OFFSET 14.190811 -0.254547 3.840278
									CHANNELS 3 Xrotation Yrotation Zrotation
									JOINT LeftHandIndex2
									{
										OFFSET 3.551727 0.000000 -0.000000
										CHANNELS 3 Xrotation Yrotation Zrotation
										JOINT LeftHandIndex3
										{
											OFFSET 2.894196 0.000000 0.000000
											CHANNELS 3 Xrotation Yrotation Zrotation
											End Site
											{
												OFFSET -1.000603 2.690872 0.366626
											}
										}
									}
								}
								JOINT LeftHandMiddle1
								{
									OFFSET 13.776489 0.000000 0.000000
									CHANNELS 3 Xrotation Yrotation Zrotation
									JOINT LeftHandMiddle2
									{
										OFFSET 3.438232 0.000000 0.000000
										CHANNELS 3 Xrotation Yrotation Zrotation
										JOINT LeftHandMiddle3
										{
											OFFSET 3.691551 0.000000 0.000000
											CHANNELS 3 Xrotation Yrotation Zrotation
											End Site
											{
												OFFSET -1.082298 3.499527 0.457670
											}
										}
									}
								}
								JOINT LeftHandRing1
								{
									OFFSET 13.966164 -0.268127 -3.067488
									CHANNELS 3 Xrotation Yrotation Zrotation
									JOINT LeftHandRing2
									{
										OFFSET 3.162567 0.000000 0.000000
										CHANNELS 3 Xrotation Yrotation Zrotation
										JOINT LeftHandRing3
										{
											OFFSET 3.324348 0.000000 0.000000
											CHANNELS 3 Xrotation Yrotation Zrotation
											End Site
											{
												OFFSET -0.861900 3.184998 0.405154
											}
										}
									}
								}
								JOINT LeftHandPinky1
								{
									OFFSET 13.131393 -0.168503 -5.746925
									CHANNELS 3 Xrotation Yrotation Zrotation
									JOINT LeftHandPinky2
									{
										OFFSET 2.849182 0.000000 0.000000
										CHANNELS 3 Xrotation Yrotation Zrotation
										JOINT LeftHandPinky3
										{
											OFFSET 2.805038 0.000000 0.000000
											CHANNELS 3 Xrotation Yrotation Zrotation
											End Site
											{
												OFFSET -0.882500 2.642609 0.325652
											}
										}
									}
								}
							}
							JOINT Left_Sleeve
							{
								OFFSET 6.592125 -0.646545 0.805568
								CHANNELS 3 Xrotation Yrotation Zrotation
								End Site
								{
									OFFSET -0.000179 20.275787 -0.000000
								}
							}
						}
					}
				}
				JOINT RightShoulder
				{
					OFFSET -5.731700 15.108002 -2.763700
					CHANNELS 3 Xrotation Yrotation Zrotation
					JOINT RightArm
					{
						OFFSET -9.825497 2.506317 -1.597400
						CHANNELS 3 Xrotation Yrotation Zrotation
						JOINT RightForeArm
						{
							OFFSET -21.966242 0.000000 0.000000
							CHANNELS 3 Xrotation Yrotation Zrotation
							JOINT RightHand
							{
								OFFSET -33.879032 0.000000 0.000000
								CHANNELS 3 Xrotation Yrotation Zrotation
								JOINT RightHandThumb1
								{
									OFFSET -6.715286 -2.359680 3.363841
									CHANNELS 3 Xrotation Yrotation Zrotation
									JOINT RightHandThumb2
									{
										OFFSET -2.507072 -1.447464 1.447461
										CHANNELS 3 Xrotation Yrotation Zrotation
										JOINT RightHandThumb3
										{
											OFFSET -2.898338 -1.673355 1.673357
											CHANNELS 3 Xrotation Yrotation Zrotation
											End Site
											{
												OFFSET 0.295959 3.727692 -0.131651
											}
										}
									}
								}
								JOINT RightHandIndex1
								{
									OFFSET -14.190811 -0.254547 3.840278
									CHANNELS 3 Xrotation Yrotation Zrotation
									JOINT RightHandIndex2
									{
										OFFSET -3.551727 0.000000 -0.000000
										CHANNELS 3 Xrotation Yrotation Zrotation
										JOINT RightHandIndex3
										{
											OFFSET -2.894196 0.000000 0.000000
											CHANNELS 3 Xrotation Yrotation Zrotation
											End Site
											{
												OFFSET 1.000603 2.690872 0.366626
											}
										}
									}
								}
								JOINT RightHandMiddle1
								{
									OFFSET -13.776489 0.000000 0.000000
									CHANNELS 3 Xrotation Yrotation Zrotation
									JOINT RightHandMiddle2
									{
										OFFSET -3.438232 0.000000 0.000000
										CHANNELS 3 Xrotation Yrotation Zrotation
										JOINT RightHandMiddle3
										{
											OFFSET -3.691551 0.000000 0.000000
											CHANNELS 3 Xrotation Yrotation Zrotation
											End Site
											{
												OFFSET 1.082298 3.499527 0.457670
											}
										}
									}
								}
								JOINT RightHandRing1
								{
									OFFSET -13.966164 -0.268127 -3.067488
									CHANNELS 3 Xrotation Yrotation Zrotation
									JOINT RightHandRing2
									{
										OFFSET -3.162567 0.000000 0.000000
										CHANNELS 3 Xrotation Yrotation Zrotation
										JOINT RightHandRing3
										{
											OFFSET -3.324348 0.000000 0.000000
											CHANNELS 3 Xrotation Yrotation Zrotation
											End Site
											{
												OFFSET 0.861900 3.184998 0.405154
											}
										}
									}
								}
								JOINT RightHandPinky1
								{
									OFFSET -13.131393 -0.168503 -5.746925
									CHANNELS 3 Xrotation Yrotation Zrotation
									JOINT RightHandPinky2
									{
										OFFSET -2.849182 0.000000 0.000000
										CHANNELS 3 Xrotation Yrotation Zrotation
										JOINT RightHandPinky3
										{
											OFFSET -2.805038 0.000000 0.000000
											CHANNELS 3 Xrotation Yrotation Zrotation
											End Site
											{
												OFFSET 0.882500 2.642609 0.325652
											}
										}
									}
								}
							}
							JOINT Right_Sleeve
							{
								OFFSET -6.592125 -0.646545 0.805568
								CHANNELS 3 Xrotation Yrotation Zrotation
								End Site
								{
									OFFSET 0.000179 20.275787 -0.000000
								}
							}
						}
					}
				}
				JOINT Bind_Right_JacketString
				{
					OFFSET -3.534800 11.969597 7.200700
					CHANNELS 3 Xrotation Yrotation Zrotation
					JOINT Bind_Right_JacketString1
					{
						OFFSET -0.319900 -6.102600 2.794100
						CHANNELS 3 Xrotation Yrotation Zrotation
						End Site
						{
							OFFSET 0.000000 6.719452 0.000000
						}
					}
				}
				JOINT Bind_Left_JacketString
				{
					OFFSET 2.904800 11.969597 7.200700
					CHANNELS 3 Xrotation Yrotation Zrotation
					JOINT Bind_Left_JacketString1
					{
						OFFSET 0.364800 -5.904503 3.186800
						CHANNELS 3 Xrotation Yrotation Zrotation
						End Site
						{
							OFFSET 0.000000 6.719513 0.000000
						}
					}
				}
				JOINT HairE
				{
					OFFSET 5.915200 17.612701 -11.592200
					CHANNELS 3 Xrotation Yrotation Zrotation
					JOINT HairE1
					{
						OFFSET 0.289200 -7.171898 -1.284500
						CHANNELS 3 Xrotation Yrotation Zrotation
						End Site
						{
							OFFSET 0.000000 7.291756 0.000000
						}
					}
				}
				JOINT HairF
				{
					OFFSET -0.864800 17.612701 -11.592200
					CHANNELS 3 Xrotation Yrotation Zrotation
					JOINT HairF1
					{
						OFFSET 0.000000 -14.087097 -2.127501
						CHANNELS 3 Xrotation Yrotation Zrotation
						End Site
						{
							OFFSET 0.000000 14.246841 0.000000
						}
					}
				}
				JOINT HairG
				{
					OFFSET -8.087700 17.612701 -11.592200
					CHANNELS 3 Xrotation Yrotation Zrotation
					JOINT HairG1
					{
						OFFSET -0.293600 -6.081398 -0.910100
						CHANNELS 3 Xrotation Yrotation Zrotation
						End Site
						{
							OFFSET 0.000000 6.156120 0.000000
						}
					}
				}
			}
		}
	}
	JOINT Pouch
	{
		OFFSET 0.000000 4.394501 10.847300
		CHANNELS 3 Xrotation Yrotation Zrotation
		End Site
		{
			OFFSET 0.000000 21.880577 0.000000
		}
	}
	JOINT Bag
	{
		OFFSET -13.229000 4.813004 -0.593300
		CHANNELS 3 Xrotation Yrotation Zrotation
		End Site
		{
			OFFSET 0.000000 21.880577 0.000000
		}
	}
	JOINT OccupyGuyFacialAnim_Joint
	{
		OFFSET 1.000000 -70.206398 -1.655000
		CHANNELS 3 Xrotation Yrotation Zrotation
		End Site
		{
			OFFSET 0.000000 21.880577 0.000000
		}
	}
}
MOTION
Frames: 5
Frame Time: 0.016667
6.992710 70.199364 10.516693 -1.312480 5.966332 -5.994729 -0.000000 -0.000001 0.000001 4.595094 11.097584 9.037067 15.311295 -7.035242 -0.333404 -19.944991 2.286866 -0.923612 -0.000000 0.000000 -0.000000 -0.000001 -0.000001 -0.000000 -29.636123 -7.216499 -1.088051 35.369923 0.439782 1.252648 -5.664843 0.290535 6.939982 -0.000000 -0.000000 0.000000 -0.000001 0.000000 -0.000000 10.009915 -1.251240 3.401234 1.871315 -1.420407 1.481032 -3.085457 -1.618651 0.047468 -2.263183 -2.413852 6.433473 -4.853450 1.032562 -5.132382 -0.000000 -0.000000 -0.000000 -0.000000 -0.000000 -0.000000 -0.000000 -0.000000 -0.000000 -0.000000 -0.000000 -0.000000 0.000000 0.000000 -0.000000 -0.000000 -0.000000 -0.000000 0.000000 0.000000 -0.000000 -0.000000 -0.000000 -0.000000 -0.000000 -0.000000 -0.000000 1.744052 -3.421884 -0.743976 -7.039699 -12.744838 -76.200008 9.887305 -11.719666 -4.534078 1.706384 -0.532265 7.848857 -4.356465 11.023673 11.798669 5.431340 10.003926 0.349311 -0.000000 -0.000001 -0.000001 2.289860 -1.111363 -15.774158 -0.016998 0.156539 -19.489069 0.000003 0.000000 -0.000002 -0.324426 0.423837 -19.903217 0.047037 0.327321 -24.651816 0.000006 0.000001 -0.000006 -1.103110 2.349893 -19.788687 -0.026219 0.169243 -29.078291 -0.000001 0.000001 -0.000005 -3.158376 2.690865 -30.313387 0.023810 0.128496 -31.162728 -0.000001 0.000001 0.000003 0.000001 0.000001 -0.000000 2.245578 4.208254 6.197042 0.519970 4.376572 72.028825 11.172625 15.288351 2.172150 -7.832652 -0.659891 -5.101839 -0.466457 -9.625974 -6.004453 7.286164 -11.588849 1.091632 0.000002 -0.000001 0.000002 2.690304 -4.660467 9.914388 -0.045373 -0.188960 19.171740 -0.000001 0.000000 -0.000001 -1.689185 -5.560301 14.804556 0.093473 -0.624786 27.014829 -0.000002 -0.000002 -0.000001 -4.593406 -8.836029 12.400046 -0.024342 -0.323706 32.805884 -0.000000 -0.000001 -0.000002 -6.446322 -8.951905 24.517930 0.067057 -0.215938 34.229090 -0.000001 0.000001 -0.000003 0.000000 0.000000 0.000000 -0.000000 0.000000 0.000000 -0.000000 0.000000 -0.000000 -0.000000 0.000000 0.000000 -0.000000 0.000000 0.000000 -0.000000 0.000000 0.000000 -0.000000 0.000000 0.000000 -0.000000 0.000000 0.000000 -0.000000 0.000000 0.000000 -0.000000 0.000000 0.000000 -0.000000 0.000000 0.000000 -0.000000 -0.000001 0.000001 -0.000000 -0.000001 0.000001 -0.000000 -0.000001 0.000001 
6.961041 70.072067 11.122339 -1.184747 6.043772 -6.034832 -0.000000 0.000000 0.000001 5.073643 10.975377 9.139976 15.274482 -6.945598 -0.330573 -20.502698 2.354533 -1.066970 0.000000 -0.000000 -0.000000 0.000000 0.000000 -0.000000 -28.904473 -7.310702 -0.852486 30.978019 1.544033 1.265630 -6.322397 0.260255 6.794197 -0.000001 0.000000 -0.000001 -0.000000 0.000000 -0.000000 10.197875 -1.323015 3.194440 1.658268 -1.547289 1.654123 -3.099211 -1.728067 0.284328 -2.452575 -2.344112 6.184122 -4.954939 1.081390 -5.347817 -0.000000 -0.000000 -0.000000 -0.000000 -0.000000 -0.000000 -0.000000 -0.000000 -0.000000 -0.000000 -0.000000 0.000000 0.000000 -0.000000 0.000000 -0.000000 -0.000000 0.000000 0.000000 -0.000000 0.000000 -0.000000 -0.000000 -0.000000 -0.000000 -0.000000 -0.000000 1.747729 -3.049441 -1.011632 -6.924674 -13.420955 -75.877842 9.745416 -12.188610 -4.775188 2.092398 -0.946468 8.152624 -4.383303 11.106644 11.775335 5.357298 9.945690 0.408972 0.000001 -0.000001 -0.000002 2.245794 -1.355888 -16.178046 -0.017981 0.152845 -19.607407 0.000006 0.000002 -0.000002 -0.299596 0.156422 -20.277008 0.045369 0.314816 -24.655762 -0.000002 0.000002 -0.000001 -1.047551 1.972699 -20.300101 -0.026418 0.162934 -29.051008 -0.000001 0.000000 -0.000003 -3.136085 2.284614 -30.597970 0.022763 0.123701 -31.167263 -0.000003 -0.000001 0.000003 -0.000001 0.000001 -0.000001 2.286455 4.046476 5.957243 0.577122 4.140636 72.193529 11.311821 15.036755 2.556835 -7.641443 -0.666293 -5.228118 -0.468202 -9.956630 -5.963540 7.202594 -11.575614 0.986461 -0.000001 -0.000001 0.000000 2.686111 -4.470813 10.325778 -0.045359 -0.188969 19.198538 -0.000002 0.000000 0.000002 -1.600188 -5.334341 15.148436 0.090088 -0.605975 26.848408 0.000002 0.000000 -0.000003 -4.387607 -8.479931 12.961580 -0.024756 -0.313828 32.544933 -0.000001 -0.000001 -0.000000 -6.273532 -8.522932 24.848136 0.066315 -0.215097 34.010773 0.000000 0.000000 -0.000001 0.000003 -0.000000 -0.000000 -0.000001 0.000000 0.000000 -0.000001 0.000000 0.000000 -0.000001 0.000000 0.000000 -0.000001 0.000000 0.000000 -0.000001 0.000000 0.000000 -0.000001 0.000000 0.000000 -0.000001 0.000000 0.000000 -0.000001 0.000000 0.000000 -0.000001 0.000000 0.000000 -0.000001 0.000000 0.000000 -0.000000 0.000000 0.000001 -0.000000 0.000000 0.000001 -0.000000 0.000000 0.000001 
6.911013 69.941071 11.749171 -1.041187 6.173175 -6.020037 -0.000000 0.000000 -0.000000 5.449928 10.785558 9.234919 15.433221 -6.842107 -0.332546 -21.067829 2.397825 -1.228121 0.000000 -0.000001 0.000000 -0.000000 0.000000 0.000000 -28.054795 -7.423237 -0.673449 26.595263 2.583213 1.312998 -6.871425 0.397566 6.172092 -0.000000 0.000000 -0.000000 0.000001 -0.000000 -0.000000 10.284936 -1.415901 3.019297 1.530881 -1.655980 1.713172 -3.029679 -1.822409 0.405164 -2.777379 -2.362638 6.163046 -5.001021 1.132729 -5.650764 -0.000000 0.000000 0.000000 -0.000000 0.000000 0.000000 -0.000000 0.000000 0.000000 -0.000000 0.000000 0.000000 0.000000 0.000000 0.000000 -0.000000 0.000000 0.000000 0.000000 0.000000 0.000000 -0.000000 0.000000 0.000000 -0.000000 0.000000 0.000000 1.734722 -2.975680 -1.007656 -6.950068 -13.745415 -75.686863 9.739462 -12.702276 -4.881130 2.520977 -1.552528 8.466097 -4.410172 11.189399 11.752201 5.283392 9.887563 0.468364 -0.000001 0.000001 0.000002 2.198440 -1.599437 -16.581462 -0.018977 0.149172 -19.725603 -0.000003 -0.000001 -0.000002 -0.278370 -0.110842 -20.650221 0.043772 0.302357 -24.659700 0.000002 0.000001 -0.000003 -0.999207 1.595586 -20.811909 -0.026630 0.156631 -29.023653 -0.000003 0.000001 -0.000001 -3.117941 1.878819 -30.880388 0.021722 0.118994 -31.171747 -0.000004 0.000001 -0.000000 -0.000001 0.000001 -0.000000 2.341273 3.697851 6.000389 0.577669 4.244791 72.228485 11.271321 14.839600 2.930562 -7.640641 -0.677188 -5.414279 -0.470755 -10.343825 -5.916567 7.104731 -11.559883 0.863592 0.000001 -0.000001 0.000001 2.674553 -4.239839 10.801766 -0.045337 -0.188996 19.226337 -0.000000 0.000000 0.000002 -1.500435 -5.066632 15.545451 0.086127 -0.583990 26.650867 -0.000001 -0.000001 0.000003 -4.154877 -8.063586 13.611051 -0.025337 -0.302246 32.236758 -0.000000 0.000000 -0.000003 -6.074244 -8.029420 25.226228 0.065574 -0.214072 33.752920 -0.000001 -0.000000 0.000004 0.000003 -0.000001 0.000000 0.000000 -0.000000 0.000000 0.000000 -0.000000 -0.000000 0.000000 -0.000000 0.000000 0.000000 -0.000000 0.000000 0.000000 -0.000000 0.000000 0.000000 -0.000000 -0.000000 0.000000 -0.000000 0.000000 0.000000 -0.000000 0.000000 0.000000 -0.000000 0.000000 0.000000 -0.000000 -0.000000 -0.000000 0.000000 -0.000000 -0.000000 0.000000 -0.000000 -0.000000 0.000000 -0.000000 
6.854102 69.806526 12.403411 -0.839112 6.347508 -5.992424 -0.000000 0.000000 -0.000000 5.669744 10.602363 9.391925 15.781480 -6.915737 -0.399396 -21.650153 2.505892 -1.320195 -0.000000 0.000000 -0.000000 0.000001 -0.000001 -0.000000 -27.277088 -7.545689 -0.673386 22.465187 2.888045 1.592277 -7.245417 0.804011 5.688894 -0.000000 -0.000000 0.000000 -0.000000 0.000000 -0.000000 10.407458 -1.516693 2.754516 1.273627 -1.788264 1.884379 -3.086573 -1.937610 0.641755 -2.875667 -2.328187 5.878670 -5.125607 1.143905 -5.846474 0.000000 0.000000 -0.000000 0.000000 0.000000 -0.000000 0.000000 0.000000 -0.000000 0.000000 0.000000 -0.000000 0.000000 0.000000 -0.000000 0.000000 0.000000 -0.000000 0.000000 0.000000 -0.000000 0.000000 0.000000 -0.000000 0.000000 0.000000 -0.000000 1.738330 -2.704593 -1.152258 -6.991231 -14.055439 -75.556427 10.158541 -13.161985 -4.994928 2.946557 -2.051334 8.656872 -4.437024 11.271947 11.729162 5.209707 9.829534 0.527486 0.000000 -0.000000 0.000001 2.147825 -1.841599 -16.983747 -0.019989 0.145569 -19.843366 0.000000 0.000001 -0.000000 -0.260703 -0.377509 -21.022077 0.042241 0.289954 -24.663617 0.000003 0.000004 0.000001 -0.958144 1.219223 -21.323483 -0.026838 0.150378 -28.996305 -0.000002 0.000002 -0.000000 -3.103782 1.474210 -31.160621 0.020717 0.114291 -31.176340 -0.000003 -0.000001 -0.000001 -0.000001 0.000000 -0.000000 2.373054 3.408513 5.817491 0.773667 4.237542 72.357392 11.267692 14.704965 3.217593 -7.714444 -0.569647 -5.519628 -0.474393 -10.781638 -5.864792 6.994192 -11.541824 0.724873 0.000002 0.000000 0.000002 2.654093 -3.972523 11.335052 -0.045304 -0.189009 19.255056 0.000001 -0.000001 -0.000002 -1.393035 -4.761480 15.989247 0.081612 -0.559093 26.425464 0.000002 0.000000 -0.000001 -3.902709 -7.591988 14.337107 -0.025858 -0.289224 31.886759 0.000000 -0.000001 -0.000003 -5.854042 -7.477586 25.644953 0.064659 -0.212902 33.459908 -0.000000 -0.000000 -0.000003 -0.000001 -0.000001 0.000000 -0.000001 0.000000 0.000000 -0.000001 0.000000 0.000000 -0.000001 0.000000 0.000000 -0.000001 0.000000 0.000000 -0.000001 0.000000 0.000000 -0.000001 0.000000 0.000000 -0.000001 0.000000 0.000000 -0.000001 0.000000 0.000000 -0.000001 0.000000 0.000000 -0.000001 0.000000 0.000000 -0.000000 0.000000 -0.000000 -0.000000 0.000000 -0.000000 -0.000000 0.000000 -0.000000 
6.776609 69.671730 13.115038 -0.719199 6.523130 -5.894159 0.000000 0.000000 0.000000 6.096333 10.467174 9.511174 15.981541 -7.034247 -0.480841 -22.155491 2.625929 -1.433622 0.000000 0.000000 -0.000000 -0.000000 0.000001 -0.000000 -26.563441 -7.672704 -0.590537 18.744003 3.045576 1.577053 -7.739415 1.256736 5.324330 -0.000001 0.000000 0.000000 0.000002 -0.000000 -0.000000 10.744466 -1.613811 2.474791 0.862135 -1.917848 2.026345 -3.297926 -2.045511 0.855363 -2.624587 -2.258870 5.439389 -5.463570 1.111055 -5.993755 -0.000000 -0.000000 0.000000 -0.000000 -0.000000 0.000000 -0.000000 -0.000000 0.000000 -0.000000 -0.000000 0.000000 -0.000000 -0.000000 0.000000 -0.000000 -0.000000 0.000000 -0.000000 -0.000000 0.000000 -0.000000 -0.000000 0.000000 -0.000000 -0.000000 0.000000 1.733736 -2.483403 -1.370493 -6.732602 -14.418225 -75.287871 10.256397 -13.631156 -5.186336 3.374025 -2.408091 8.984235 -4.463748 11.354200 11.706369 5.136369 9.771770 0.586256 0.000001 -0.000001 0.000001 2.094223 -2.081829 -17.384187 -0.021051 0.141959 -19.960545 -0.000000 0.000001 -0.000002 -0.246530 -0.642979 -21.392282 0.040664 0.277542 -24.667515 0.000002 0.000002 -0.000006 -0.924306 0.844435 -21.834178 -0.027029 0.144107 -28.968933 0.000002 0.000001 -0.000007 -3.093428 1.071496 -31.438507 0.019688 0.109543 -31.180900 -0.000000 -0.000001 -0.000004 0.000002 0.000000 -0.000001 2.386601 3.103078 5.622622 1.342291 4.454615 72.514657 10.835912 14.812585 3.464577 -8.195790 -0.778700 -5.132931 -0.479221 -11.263732 -5.809217 6.872493 -11.521685 0.572384 0.000000 0.000000 0.000002 2.623407 -3.673790 11.918595 -0.045304 -0.189022 19.284566 -0.000001 0.000000 -0.000003 -1.280892 -4.422961 16.473390 0.076628 -0.531761 26.175720 -0.000001 -0.000000 0.000001 -3.638245 -7.070335 15.128459 -0.026482 -0.274853 31.500242 -0.000000 0.000000 -0.000000 -5.618306 -6.873681 26.097149 0.063455 -0.205197 33.136263 0.000000 0.000000 0.000004 0.000002 0.000000 -0.000000 -0.000000 -0.000000 0.000000 -0.000000 0.000000 0.000000 -0.000000 -0.000000 0.000000 -0.000000 -0.000000 0.000000 -0.000000 -0.000000 0.000000 -0.000000 0.000000 0.000000 -0.000000 -0.000000 0.000000 -0.000000 -0.000000 0.000000 -0.000000 -0.000000 0.000000 -0.000000 0.000000 0.000000 0.000000 0.000000 0.000000 0.000000 0.000000 0.000000 0.000000 0.000000 0.000000 
